 <svg version="1.0" xmlns="http://www.w3.org/2000/svg"  width="300.000000pt" height="331.000000pt" viewBox="0 0 300.000000 331.000000"  preserveAspectRatio="xMidYMid meet">  <g transform="translate(0.000000,331.000000) scale(0.100000,-0.100000)" fill="#ffffff" stroke="none"> <path d="M800 3145 l0 -105 815 0 815 0 0 105 0 105 -815 0 -815 0 0 -105z m1588 7 c2 -30 -2 -59 -8 -67 -8 -10 -156 -12 -764 -11 -415 0 -758 4 -761 8 -13 13 -16 100 -4 114 10 12 135 14 773 12 l761 -3 3 -53z"/> <path d="M590 2931 l0 -111 -165 0 -165 0 0 -111 0 -111 165 4 165 3 0 -217 0 -218 -165 0 -165 0 0 -111 0 -111 165 3 165 4 0 -217 0 -218 -165 0 -165 0 0 -111 0 -111 165 4 165 3 0 -107 0 -108 105 0 105 0 0 970 0 970 -52 0 c-29 0 -77 3 -105 6 l-53 7 0 -112z m138 63 l32 -5 -2 -927 -3 -927 -60 0 -60 0 -5 82 c-7 121 -12 124 -174 125 -90 1 -132 5 -141 14 -10 11 -13 68 -6 117 0 4 58 7 127 7 125 0 156 7 181 39 9 11 12 75 13 218 0 263 9 251 -177 255 -72 2 -134 6 -138 10 -11 10 -18 77 -11 104 6 24 7 24 142 24 130 0 136 1 159 25 25 24 25 25 25 228 0 270 9 257 -175 257 -150 0 -155 2 -155 74 0 67 -2 66 147 66 129 0 135 1 158 25 22 21 25 33 25 104 0 93 5 98 98 85z"/> <path d="M2463 3032 l-33 -3 0 -970 0 -969 -812 -2 -813 -3 0 -103 0 -102 813 -3 812 -2 0 108 0 107 110 0 110 0 0 974 0 975 -77 -2 c-43 -1 -93 -3 -110 -5z m136 -48 c7 -7 12 -1812 5 -1837 -5 -15 -15 -17 -67 -15 l-62 3 -3 927 c-2 876 -1 927 15 931 23 6 104 0 112 -9z m-222 -1945 c16 -14 17 -101 1 -117 -9 -9 -191 -12 -759 -12 -640 0 -750 2 -762 15 -17 17 -21 94 -5 112 14 18 1504 19 1525 2z"/> <path d="M1020 2063 l0 -868 110 0 110 0 0 868 0 867 -110 0 -110 0 0 -867z m169 814 c8 -10 10 -240 8 -823 l-2 -809 -65 0 -65 0 -2 809 c-2 585 0 813 8 823 15 17 103 17 118 0z"/> <path d="M571 724 c-27 -34 -27 -78 -1 -104 15 -15 33 -20 75 -20 65 0 95 22 95 70 0 49 -38 80 -99 80 -42 0 -53 -4 -70 -26z m117 -48 c6 -46 -49 -64 -82 -27 -14 16 -15 23 -6 41 9 17 19 20 48 18 32 -3 37 -7 40 -32z"/> <path d="M1842 660 c4 -80 2 -90 -11 -84 -9 4 -38 9 -66 11 -93 7 -144 -50 -165 -183 -19 -116 9 -255 60 -297 55 -47 160 -44 194 5 15 20 15 20 38 -6 19 -23 34 -28 85 -33 l61 -6 9 64 c7 57 6 65 -9 71 -17 7 -18 29 -18 278 l0 270 -91 0 -91 0 4 -90z m118 40 c18 -10 19 -25 20 -245 0 -197 3 -240 16 -260 8 -13 14 -34 12 -47 -4 -31 -54 -36 -103 -9 l-38 20 -46 -24 c-122 -64 -193 24 -186 228 4 84 23 136 64 168 22 18 35 20 88 15 56 -6 63 -4 77 16 10 13 16 43 16 73 0 70 28 93 80 65z"/> <path d="M1761 453 c-30 -37 -34 -62 -29 -155 4 -73 8 -84 32 -105 15 -13 33 -23 41 -23 27 0 63 23 74 47 16 36 14 188 -4 222 -25 49 -82 56 -114 14z m67 -9 c21 -6 22 -11 22 -120 l0 -114 -34 0 c-22 0 -36 6 -40 16 -10 26 -7 184 4 205 12 21 14 22 48 13z"/> <path d="M283 565 c-24 -13 -44 -22 -44 -19 -1 2 -2 10 -3 17 -1 8 -27 13 -83 15 l-83 3 0 -251 0 -250 91 0 91 0 -3 172 -3 172 25 7 c48 12 49 8 49 -177 l0 -174 90 0 90 0 0 193 c-1 216 -8 262 -45 295 -37 31 -115 30 -172 -3z m148 -34 c23 -19 24 -23 26 -197 1 -104 -2 -185 -8 -196 -8 -15 -19 -18 -47 -16 l-37 3 -5 147 c-5 139 -6 148 -30 173 -20 21 -31 25 -55 21 -55 -11 -65 -37 -65 -173 0 -67 -4 -134 -10 -148 -9 -23 -15 -26 -47 -23 l-38 3 -3 185 c-1 102 0 195 3 208 4 18 12 22 41 22 19 0 49 -7 65 -16 28 -14 33 -14 72 5 53 26 107 27 138 2z"/> <path d="M987 570 c-30 -24 -37 -25 -37 -5 0 12 -15 15 -77 15 l-78 0 0 -250 0 -250 88 0 87 0 0 165 c0 158 1 165 21 176 12 6 37 9 55 6 l34 -6 0 53 c0 30 3 68 6 85 6 31 6 31 -33 31 -25 0 -50 -8 -66 -20z m-22 -42 c11 0 32 3 48 7 26 7 27 6 27 -29 0 -33 -3 -37 -30 -43 -17 -3 -42 -19 -55 -35 -24 -28 -25 -36 -25 -158 0 -140 -5 -154 -57 -148 l-28 3 -3 195 c-1 107 0 201 3 208 4 11 16 13 53 7 26 -3 56 -7 67 -7z"/> <path d="M1223 571 c-25 -12 -52 -35 -67 -58 -52 -79 -55 -264 -6 -352 55 -96 229 -121 320 -45 49 42 63 79 68 186 7 155 -22 233 -102 269 -55 25 -157 25 -213 0z m190 -35 c62 -26 87 -80 89 -193 2 -166 -44 -228 -172 -227 -114 0 -167 55 -174 182 -8 127 23 209 88 238 40 17 128 18 169 0z"/> <path d="M1283 466 c-27 -23 -28 -29 -31 -128 -4 -101 -3 -106 23 -136 34 -40 72 -42 106 -6 20 21 24 38 27 100 5 96 -4 140 -33 170 -31 30 -56 30 -92 0z m82 -38 c3 -13 5 -65 3 -117 -2 -76 -6 -96 -20 -105 -13 -8 -23 -8 -35 0 -15 9 -19 29 -21 105 -4 124 0 139 38 139 22 0 31 -5 35 -22z"/> <path d="M2205 572 c-87 -41 -122 -124 -113 -268 6 -107 42 -173 113 -212 33 -18 186 -21 240 -4 30 9 30 9 27 73 -2 35 -5 65 -5 65 -1 1 -31 -4 -67 -12 -74 -15 -104 -11 -125 19 -30 44 -23 47 106 47 l121 0 -4 104 c-3 112 -13 136 -71 180 -39 29 -168 34 -222 8z m190 -38 c47 -22 67 -69 63 -147 l-3 -62 -39 -3 c-21 -2 -45 -1 -53 3 -14 5 -14 7 1 23 24 28 20 77 -9 107 -34 33 -70 32 -106 -4 -36 -36 -37 -67 -3 -102 l26 -27 -21 -21 c-25 -25 -27 -58 -5 -89 24 -35 55 -46 122 -44 61 3 63 2 60 -20 -2 -19 -11 -24 -53 -30 -81 -13 -138 -1 -182 37 -48 41 -63 86 -63 187 0 105 26 158 95 196 30 17 132 14 170 -4z m-67 -100 c12 -8 22 -26 22 -40 0 -22 -4 -24 -49 -24 -47 0 -48 1 -43 28 4 24 26 52 42 52 3 0 16 -7 28 -16z"/> <path d="M560 328 l0 -248 85 0 85 0 0 244 0 245 -85 3 -85 3 0 -247z m119 198 c8 -9 11 -73 9 -207 l-3 -194 -40 0 -40 0 -3 199 c-2 153 1 201 10 208 20 12 54 9 67 -6z"/> <path d="M2525 553 c18 -69 95 -440 95 -456 0 -16 11 -17 127 -15 l126 3 23 110 c46 217 74 359 74 372 0 20 -156 18 -164 -2 -3 -9 -13 -81 -23 -160 -10 -84 -22 -145 -28 -145 -7 0 -19 63 -29 148 -10 81 -21 153 -23 160 -4 8 -32 12 -95 12 l-90 0 7 -27z m132 -21 c7 -5 22 -66 33 -138 16 -104 23 -132 40 -146 44 -36 66 -1 91 150 10 65 21 123 24 130 6 17 64 15 71 -2 3 -8 -2 -50 -11 -93 -9 -43 -18 -89 -21 -103 -19 -104 -39 -184 -51 -196 -19 -18 -156 -20 -171 -1 -6 7 -20 60 -32 117 -12 58 -28 132 -36 165 -7 33 -14 75 -14 93 0 30 2 32 33 32 17 0 38 -4 44 -8z"/> </g> </svg> 